<svg xmlns="http://www.w3.org/2000/svg" viewBox="0 0 720 480" role="img" aria-labelledby="title desc">
  <title id="title">AI deal matching illustration</title>
  <desc id="desc">Neural network comparing buyer and seller profiles with match scores.</desc>
  <defs>
    <linearGradient id="match-bg" x1="0%" y1="0%" x2="100%" y2="100%">
      <stop offset="0%" stop-color="#f0fdfa" />
      <stop offset="100%" stop-color="#ccfbf1" />
    </linearGradient>
    <linearGradient id="match-line" x1="0%" y1="0%" x2="100%" y2="0%">
      <stop offset="0%" stop-color="#0ea5e9" />
      <stop offset="100%" stop-color="#10b981" />
    </linearGradient>
    <filter id="shadow" x="-20%" y="-20%" width="140%" height="140%">
      <feDropShadow dx="0" dy="14" stdDeviation="16" flood-color="#0f766e" flood-opacity="0.18" />
    </filter>
  </defs>
  <rect width="720" height="480" rx="32" fill="url(#match-bg)" />
  <g transform="translate(72,76)">
    <rect width="576" height="328" rx="28" fill="#ffffff" filter="url(#shadow)" />
    <g transform="translate(84,72)">
      <rect width="160" height="184" rx="24" fill="#14b8a6" opacity="0.08" />
      <circle cx="80" cy="56" r="40" fill="#0d9488" />
      <text x="80" y="64" text-anchor="middle" font-family="'Segoe UI', sans-serif" font-size="20" font-weight="600" fill="#ecfeff">Buyer</text>
      <rect x="28" y="112" width="104" height="18" rx="9" fill="#0f766e" opacity="0.45" />
      <rect x="28" y="144" width="88" height="18" rx="9" fill="#0f766e" opacity="0.32" />
    </g>
    <g transform="translate(408,72)">
      <rect width="160" height="184" rx="24" fill="#38bdf8" opacity="0.08" />
      <circle cx="80" cy="56" r="40" fill="#0ea5e9" />
      <text x="80" y="64" text-anchor="middle" font-family="'Segoe UI', sans-serif" font-size="20" font-weight="600" fill="#e0f2fe">Seller</text>
      <rect x="36" y="112" width="96" height="18" rx="9" fill="#0284c7" opacity="0.45" />
      <rect x="48" y="144" width="76" height="18" rx="9" fill="#0284c7" opacity="0.32" />
    </g>

    <g transform="translate(180,96)" stroke="url(#match-line)" stroke-width="6" stroke-linecap="round" stroke-linejoin="round">
      <path d="M0 96c64-72 128-72 192 0s128 72 192 0" fill="none" />
      <circle cx="0" cy="96" r="9" fill="#0ea5e9" />
      <circle cx="96" cy="36" r="9" fill="#0ea5e9" />
      <circle cx="192" cy="96" r="9" fill="#10b981" />
      <circle cx="288" cy="36" r="9" fill="#10b981" />
      <circle cx="384" cy="96" r="9" fill="#10b981" />
      <path d="M192 96v64" />
      <path d="M96 36v64" opacity="0.6" />
      <path d="M288 36v64" opacity="0.6" />
    </g>

    <g transform="translate(212,236)">
      <rect width="304" height="108" rx="24" fill="#ecfdf5" />
      <text x="32" y="48" font-family="'Segoe UI', sans-serif" font-size="18" fill="#0f766e">Match confidence score</text>
      <text x="32" y="82" font-family="'Segoe UI', sans-serif" font-size="40" font-weight="700" fill="#0ea5e9">94%</text>
      <rect x="152" y="64" width="120" height="10" rx="5" fill="#14b8a6" opacity="0.25" />
      <rect x="152" y="64" width="188" height="10" rx="5" fill="#14b8a6" />
    </g>

    <g transform="translate(96,284)" font-family="'Segoe UI', sans-serif" font-size="14" fill="#0f172a">
      <text opacity="0.7">Shared attributes: sector, EBITDA margin, geography, culture fit</text>
      <text y="28" opacity="0.7">AI highlights: synergy score 9.1 &nbsp;•&nbsp; integration readiness 8.5</text>
    </g>
  </g>
</svg>
