<svg xmlns="http://www.w3.org/2000/svg" viewBox="0 0 96 96">
  <defs>
    <linearGradient id="deal-matching-gradient" x1="0%" y1="0%" x2="100%" y2="100%">
      <stop offset="0%" stop-color="#2dd4bf" />
      <stop offset="100%" stop-color="#3b82f6" />
    </linearGradient>
  </defs>
  <rect x="6" y="6" width="84" height="84" rx="20" fill="url(#deal-matching-gradient)" />
  <g fill="none" stroke="#ffffff" stroke-width="5" stroke-linecap="round" stroke-linejoin="round">
    <path d="M32 32c4.418 0 8 3.582 8 8s-3.582 8-8 8-8-3.582-8-8 3.582-8 8-8z" />
    <path d="M64 48c4.418 0 8 3.582 8 8s-3.582 8-8 8-8-3.582-8-8 3.582-8 8-8z" />
    <path d="M32 40l16 8" />
    <path d="M48 48l16 8" />
    <path d="M44 60l-4 12" opacity="0.6" />
    <path d="M52 36l4-12" opacity="0.6" />
    <circle cx="48" cy="48" r="10" fill="rgba(255,255,255,0.2)" stroke-width="0" />
  </g>
</svg>

