<svg xmlns="http://www.w3.org/2000/svg" xmlns:xlink="http://www.w3.org/1999/xlink" width="1024" zoomAndPan="magnify" viewBox="0 0 768 767.999994" height="1024" preserveAspectRatio="xMidYMid meet" version="1.0"><defs><clipPath id="cc1aafe146"><path d="M 0 1.503906 L 768 1.503906 L 768 768 L 0 768 Z M 0 1.503906 " clip-rule="nonzero"/></clipPath><clipPath id="0b9b003344"><path d="M 384 1.503906 C 171.921875 1.503906 0 173.425781 0 385.503906 C 0 597.582031 171.921875 769.503906 384 769.503906 C 596.078125 769.503906 768 597.582031 768 385.503906 C 768 173.425781 596.078125 1.503906 384 1.503906 Z M 384 1.503906 " clip-rule="nonzero"/></clipPath><clipPath id="837736b26a"><path d="M 0 0.503906 L 768 0.503906 L 768 767 L 0 767 Z M 0 0.503906 " clip-rule="nonzero"/></clipPath><clipPath id="4a1413af32"><path d="M 384 0.503906 C 171.921875 0.503906 0 172.425781 0 384.503906 C 0 596.582031 171.921875 768.503906 384 768.503906 C 596.078125 768.503906 768 596.582031 768 384.503906 C 768 172.425781 596.078125 0.503906 384 0.503906 Z M 384 0.503906 " clip-rule="nonzero"/></clipPath><clipPath id="5c93d402e6"><rect x="0" width="768" y="0" height="767"/></clipPath><clipPath id="67d02a3fe4"><path d="M 33.101562 33.101562 L 738 33.101562 L 738 738 L 33.101562 738 Z M 33.101562 33.101562 " clip-rule="nonzero"/></clipPath></defs><g clip-path="url(#cc1aafe146)"><g clip-path="url(#0b9b003344)"><g transform="matrix(1, 0, 0, 1, 0, 1)"><g clip-path="url(#5c93d402e6)"><g clip-path="url(#837736b26a)"><g clip-path="url(#4a1413af32)"><path fill="#ffffff" d="M 0 0.503906 L 768 0.503906 L 768 768.503906 L 0 768.503906 Z M 0 0.503906 " fill-opacity="1" fill-rule="nonzero"/></g></g></g></g></g></g><path fill="#0a1f44" d="M 212.605469 407.253906 C 213.738281 358.351562 233.316406 312.550781 268.019531 277.84375 C 303.789062 242.078125 351.34375 222.378906 401.933594 222.378906 L 558.339844 222.378906 C 555.988281 268.480469 517.746094 305.269531 471.066406 305.269531 L 401.933594 305.269531 C 246.5 305.269531 212.605469 407.253906 212.605469 407.253906 " fill-opacity="1" fill-rule="nonzero"/><g clip-path="url(#67d02a3fe4)"><path fill="#0a1f44" d="M 385.503906 737.902344 C 368.183594 737.902344 350.773438 736.632812 333.683594 734.113281 L 333.683594 656.546875 C 350.707031 659.789062 368.113281 661.425781 385.503906 661.425781 C 537.648438 661.425781 661.425781 537.648438 661.425781 385.503906 C 661.425781 233.359375 537.648438 109.582031 385.503906 109.582031 C 233.359375 109.582031 109.582031 233.359375 109.582031 385.503906 C 109.582031 450.464844 132.558594 513.453125 174.3125 563.066406 L 174.3125 667.628906 C 132.589844 636.332031 97.875 595.699219 73.597656 549.671875 C 47.105469 499.445312 33.101562 442.679688 33.101562 385.503906 C 33.101562 337.929688 42.417969 291.777344 60.792969 248.335938 C 78.542969 206.375 103.953125 168.679688 136.316406 136.3125 C 168.683594 103.957031 206.371094 78.539062 248.335938 60.796875 C 291.777344 42.417969 337.929688 33.101562 385.503906 33.101562 C 433.078125 33.101562 479.226562 42.417969 522.671875 60.796875 C 564.640625 78.539062 602.328125 103.957031 634.6875 136.3125 C 667.050781 168.679688 692.46875 206.375 710.210938 248.335938 C 728.589844 291.777344 737.902344 337.929688 737.902344 385.503906 C 737.902344 433.078125 728.589844 479.226562 710.210938 522.671875 C 692.46875 564.640625 667.050781 602.328125 634.6875 634.691406 C 602.328125 667.050781 564.640625 692.46875 522.671875 710.210938 C 479.226562 728.589844 433.078125 737.902344 385.503906 737.902344 " fill-opacity="1" fill-rule="nonzero"/></g><path fill="#007bff" d="M 213.066406 591.667969 C 212.726562 596.25 212.558594 600.949219 212.558594 605.628906 L 212.550781 610.125 L 212.550781 692.609375 C 238.664062 707.355469 266.511719 718.664062 295.445312 726.289062 L 295.445312 605.628906 C 295.445312 546.914062 343.214844 499.144531 401.933594 499.144531 C 226.277344 499.144531 213.066406 591.667969 213.066406 591.667969 " fill-opacity="1" fill-rule="nonzero"/><path fill="#2bb673" d="M 401.933594 416.25 C 353.78125 416.25 307.886719 434.339844 272.714844 467.179688 C 237.71875 499.867188 216.53125 544.066406 213.066406 591.667969 C 213.066406 591.667969 226.277344 499.144531 401.933594 499.144531 L 471.058594 499.144531 C 517.746094 499.144531 555.988281 462.355469 558.339844 416.25 L 401.933594 416.25 " fill-opacity="1" fill-rule="nonzero"/></svg>
